<svg width="258" height="235" viewBox="0 0 258 235" fill="none" xmlns="http://www.w3.org/2000/svg">
<path d="M120.924 52.6444V52.948C120.924 59.0585 119.843 64.9242 117.869 70.3688L117.988 70.0065C115.914 75.6469 112.571 80.4159 108.266 84.1272L108.226 84.1566C104.049 87.868 98.4936 90.13 92.4022 90.13C92.2435 90.13 92.0847 90.13 91.926 90.13H91.9458C83.5826 90.0713 76.023 86.7222 70.517 81.3266C64.3264 75.7057 59.4652 68.7726 56.36 60.968L56.231 60.5959C53.3838 53.7607 51.6873 45.8386 51.5782 37.5346V37.4954C51.5782 37.4073 51.5782 37.2996 51.5782 37.1919C51.5782 31.0813 52.6595 25.2156 54.6338 19.771L54.5147 20.1333C56.5882 14.4929 59.9315 9.72394 64.2371 6.01259L64.2768 5.98321C68.4534 2.27186 74.019 0 80.1104 0C80.2889 0 80.4675 0 80.6461 0.00979248H80.6163C88.9795 0.0587549 96.5491 3.40778 102.045 8.81323C108.166 14.4243 112.998 21.3378 116.093 29.0935L116.222 29.4656C119.089 36.3203 120.786 44.2816 120.875 52.615V52.6444H120.924ZM67.8979 126.558C67.9078 126.803 67.9078 127.087 67.9078 127.381C67.9078 135.038 65.4673 142.128 61.3105 147.945L61.3898 147.827C57.491 153.321 51.102 156.876 43.8796 156.876C43.5523 156.876 43.2249 156.866 42.8975 156.856H42.9471C34.4847 156.748 26.796 153.546 20.9825 148.337L21.0122 148.366C8.47235 137.702 0.446435 122.151 0.00992079 104.75V104.672C0 104.437 0 104.153 0 103.869C0 96.1818 2.44051 89.0528 6.59732 83.2067L6.51796 83.3242C10.397 77.7817 16.7959 74.1976 24.048 74.1976C24.3655 74.1976 24.6928 74.2074 25.0103 74.2172H24.9607C33.4231 74.325 41.1117 77.5271 46.9253 82.7367L46.8956 82.7073C59.4553 93.4301 67.4713 109.039 67.8979 126.509V126.578V126.558ZM129.02 122.426C144.109 123.278 157.75 128.752 168.683 137.418L168.544 137.31C182.622 147.23 194.418 159.265 203.733 173.072L204.051 173.572C212.225 184.373 217.454 197.769 218.327 212.321L218.337 212.516C218.347 212.771 218.357 213.075 218.357 213.368C218.357 217.325 217.374 221.065 215.638 224.346L215.698 224.218C213.991 227.264 211.412 229.644 208.277 231.063L208.178 231.103C205.291 232.464 201.928 233.531 198.416 234.128L198.178 234.158C194.844 234.696 191.015 235 187.106 235C186.858 235 186.61 235 186.362 235H186.402C175.747 234.275 165.856 231.808 156.758 227.891L157.334 228.116C149.05 224.493 139.437 222.035 129.357 221.251L129.05 221.232C118.107 222.035 107.968 224.463 98.5432 228.273L99.2079 228.038C90.0708 231.729 79.4754 234.168 68.4038 234.834L68.126 234.843C49.1707 234.856 39.6931 227.417 39.6931 212.526C40.1693 201.666 43.334 191.629 48.5424 182.933L48.3738 183.227C54.4949 171.976 61.6775 162.291 70.0408 153.732L70.0011 153.771C78.3841 145.144 87.9379 137.721 98.4539 131.748L99.069 131.425C107.591 126.137 117.849 122.837 128.861 122.406H128.98L129.02 122.426ZM166.074 90.1398C165.935 90.1398 165.776 90.1398 165.618 90.1398C159.526 90.1398 153.971 87.868 149.774 84.1468L149.794 84.1664C145.449 80.4159 142.095 75.6567 140.111 70.2415L140.032 70.0065C138.167 64.9242 137.085 59.0585 137.085 52.948C137.085 52.8402 137.085 52.7325 137.085 52.6248V52.6444C137.175 44.2718 138.871 36.3203 141.897 29.0347L141.738 29.4656C144.972 21.328 149.794 14.4243 155.885 8.84261L155.925 8.81323C161.421 3.41758 168.991 0.0685474 177.344 0.019585H177.354H177.81C183.902 0.019585 189.457 2.29144 193.654 6.01259L193.634 5.993C197.979 9.74352 201.332 14.5027 203.317 19.9179L203.396 20.1529C205.291 25.2646 206.382 31.1695 206.382 37.3192V37.515V37.5052C206.283 45.8484 204.577 53.7803 201.571 61.0365L201.729 60.6057C198.495 68.7824 193.634 75.7155 187.483 81.2972L187.443 81.3364C181.937 86.7124 174.378 90.0615 166.024 90.1104H166.014L166.074 90.1398ZM233.039 74.2368C233.317 74.227 233.635 74.2172 233.952 74.2172C241.204 74.2172 247.603 77.8013 251.432 83.2753L251.482 83.3438C255.559 89.0822 258 96.2014 258 103.898C258 104.182 258 104.456 257.99 104.74V104.701C257.554 122.181 249.528 137.731 237.067 148.317L236.988 148.385C231.204 153.566 223.515 156.768 215.073 156.876H215.053C214.775 156.885 214.448 156.895 214.12 156.895C206.898 156.895 200.509 153.35 196.66 147.915L196.61 147.847C192.533 142.148 190.092 135.048 190.092 127.4C190.092 127.116 190.092 126.822 190.102 126.538V126.578C190.529 109.039 198.545 93.4301 211.025 82.7661L211.104 82.6975C216.888 77.5369 224.557 74.3347 232.98 74.227H233L233.039 74.2368Z" fill="#D5E1E9"/>
</svg>
